Coordinates
version=1
nRows=14
nColumns=24
inDegrees=yes

Units are S.I. units (second, meters, Newtons, ...)
Angles are in degrees.

endheader
time	pelvis_tilt	pelvis_list	pelvis_rotation	pelvis_tx	pelvis_ty	pelvis_tz	hip_flexion_r	hip_adduction_r	hip_rotation_r	knee_angle_r	ankle_angle_r	subtalar_angle_r	mtp_angle_r	hip_flexion_l	hip_adduction_l	hip_rotation_l	knee_angle_l	ankle_angle_l	subtalar_angle_l	mtp_angle_l	lumbar_extension	lumbar_bending	lumbar_rotation
      3.70000000	    -12.00737752	      8.57863977	     -2.20051686	     -0.80070221	     -0.03784166	     -0.29671660	     13.35267669	    -14.49524468	     -5.33565146	    -57.97967658	    -28.32217155	    -17.07505862	     10.37226439	     31.00223322	      9.80953112	     -4.22509200	    -24.78940607	      0.00384637	    -13.83453852	     -8.44344752	     10.03176319	     -8.98744366	      5.83823083
      3.70500000	    -11.92477093	      8.44848970	     -2.07852201	     -0.79339339	     -0.03639023	     -0.29750709	     14.27782255	    -14.25050710	     -5.20856609	    -59.04533041	    -27.36627207	    -17.80146447	     10.54088652	     30.23035732	      9.86651087	     -3.93425705	    -24.47618222	      0.31765381	    -13.78919653	     -8.32807592	      9.85220188	     -8.89075578	      5.60200523
      3.71000000	    -11.97274274	      8.26038669	     -1.95493238	     -0.78610729	     -0.03508513	     -0.29828597	     15.34622139	    -13.93780164	     -5.07114734	    -60.04925123	    -26.22729855	    -18.13678595	     10.80638301	     29.62095135	      9.83209345	     -3.71118208	    -24.20551553	      0.68812498	    -13.63746632	     -8.10407928	      9.81851280	     -8.72338331	      5.30402446
      3.71500000	    -11.95625122	      8.04285226	     -1.86317940	     -0.77878853	     -0.03364448	     -0.29907037	     16.32141778	    -13.60229828	     -4.97852208	    -60.90920726	    -25.19491338	    -18.43158079	     11.09148261	     28.90630441	      9.77719150	     -3.40079406	    -23.87709567	      1.01516204	    -13.60926091	     -7.96117816	      9.73063962	     -8.51065188	      5.07215209
      3.72000000	    -11.94436338	      7.79912050	     -1.75600593	     -0.77155983	     -0.03220566	     -0.29986767	     17.28753799	    -13.25324508	     -4.93077262	    -61.67921873	    -24.12082238	    -18.50777354	     11.46860299	     28.21073774	      9.69426599	     -3.09636885	    -23.56247791	      1.30317508	    -13.57392930	     -7.84725956	      9.63159843	     -8.27183138	      4.79959475
      3.72500000	    -11.92847429	      7.55814794	     -1.63433868	     -0.76442360	     -0.03078298	     -0.30068985	     18.23918898	    -12.92801146	     -4.92610323	    -62.36456809	    -23.03723438	    -18.41475436	     11.97661105	     27.52114476	      9.61665641	     -2.79392633	    -23.24934858	      1.53988850	    -13.56414321	     -7.77616318	      9.51410175	     -8.03573975	      4.51503488
      3.73000000	    -11.89939918	      7.28252274	     -1.53715300	     -0.75715231	     -0.02929920	     -0.30150146	     19.14022335	    -12.56393777	     -4.93761087	    -62.91081688	    -22.07525830	    -18.24614094	     12.47859601	     26.77093076	      9.49921859	     -2.44475380	    -22.87166513	      1.81520639	    -13.59124706	     -7.74330399	      9.42101796	     -7.74867905	      4.24999182
      3.73500000	    -11.86660354	      7.04321989	     -1.38495682	     -0.75006459	     -0.02788606	     -0.30234307	     20.02509365	    -12.27109791	     -5.00875168	    -63.39939966	    -21.01370377	    -17.90302619	     13.20401934	     26.04957737	      9.42898811	     -2.09480628	    -22.52512050	      2.01699231	    -13.58013858	     -7.77327871	      9.28504287	     -7.51912518	      3.94852221
      3.74000000	    -11.81251649	      6.81301050	     -1.26087628	     -0.74284255	     -0.02641954	     -0.30328628	     20.83037028	    -11.99807701	     -5.03417962	    -63.63515551	    -20.66896166	    -17.88230011	     16.88534312	     25.25572821	      9.37859242	     -1.68998991	    -22.11481669	      2.37513004	    -13.59508311	     -8.53695002	      9.16676763	     -7.27060448	      3.68051681
      3.74500000	    -11.77495188	      6.50172578	     -1.12583304	     -0.73573350	     -0.02500588	     -0.30408795	     21.66256279	    -11.62004032	     -5.15269633	    -63.91492705	    -19.73710984	    -17.48058860	     17.23404968	     24.50453689	      9.20707463	     -1.38499770	    -21.72344223	      2.64339062	    -13.54849728	     -8.52399182	      9.04538817	     -6.95237842	      3.36904464
      3.75000000	    -11.71446298	      6.30718225	     -0.95493941	     -0.72862503	     -0.02364350	     -0.30492254	     22.45386803	    -11.40107233	     -5.27828720	    -64.13132190	    -18.70177608	    -16.92243351	     17.95406960	     23.70128493	      9.17218498	     -1.00961228	    -21.26881916	      2.81797260	    -13.52831129	     -8.64374676	      8.90414233	     -6.77012060	      3.06579868
      3.75500000	    -11.62526983	      6.07071516	     -0.81824513	     -0.72147774	     -0.02222955	     -0.30579140	     23.17311837	    -11.12606212	     -5.38289441	    -64.18613967	    -17.87676903	    -16.44469179	     19.53367313	     22.84748934	      9.08574659	     -0.68886116	    -20.77204364	      2.99963174	    -13.61640622	     -9.04822356	      8.74781444	     -6.51945402	      2.80157387
      3.76000000	    -11.59158566	      5.76818258	     -0.58386968	     -0.71448440	     -0.02097431	     -0.30660704	     23.92138619	    -10.80021327	     -5.63512024	    -64.19085856	    -17.00501587	    -16.06488763	     20.26091890	     22.10856687	      8.91804970	     -0.36203828	    -20.38209314	      3.34222970	    -13.34040885	     -9.07480840	      8.61425249	     -6.24207122	      2.41884988
      3.76500000	    -11.52162451	      5.47450354	     -0.38800099	     -0.70740732	     -0.01965128	     -0.30750788	     24.58121433	    -10.47955405	     -5.82304253	    -63.98444082	    -16.52043112	    -15.89014184	     23.11069913	     21.29296832	      8.76521111	     -0.05088999	    -19.91377014	      3.63466479	    -13.27427043	     -9.63899002	      8.46561240	     -5.94387836	      2.08467085
